<svg xmlns="http://www.w3.org/2000/svg" width="387.341" height="128.655" viewBox="0 0 387.341 128.655"><path fill-rule="evenodd" clip-rule="evenodd" fill="#979999" d="M322.989 0H64.344C28.857 0 0 28.84 0 64.293c0 35.481 28.857 64.361 64.344 64.361H322.99c35.48 0 64.352-28.88 64.352-64.361C387.341 28.84 358.47 0 322.989 0zm0 122.615H64.344c-32.196 0-58.3-26.099-58.3-58.321 0-32.157 26.104-58.263 58.3-58.263H322.99c32.189 0 58.308 26.105 58.308 58.263-.001 32.222-26.119 58.321-58.309 58.321z"/><path fill-rule="evenodd" clip-rule="evenodd" fill="#FFF" d="M322.989 6.031H64.358c-32.203 0-58.314 26.105-58.314 58.263 0 32.223 26.111 58.321 58.314 58.321h258.631c32.193 0 58.308-26.099 58.308-58.321 0-32.158-26.114-58.263-58.308-58.263z"/><path fill-rule="evenodd" clip-rule="evenodd" fill="#3A75C4" d="M56.322 43.071h-16.4l1.492-13.113h47.123l-1.48 13.113H70.669L64.54 98.105H50.161zm38.403 56.34c-12.032 0-17.795-7.175-16.312-20.337l1.315-11.764c1.448-13.041 8.277-20.004 19.182-20.004 10.164 0 15.681 6.78 14.468 17.875l-1.207 10.73H90.276l-.466 4.286c-.64 5.681 2.341 9.034 8.284 9.034 3.191 0 7.041-1.129 11.714-3.354l.404 9.981c-5.577 2.333-10.696 3.553-15.487 3.553zm7.892-30.837l.471-4.332c.616-5.508-1.016-8.269-4.804-8.269-3.449 0-6.089 2.761-6.667 8.009l-.495 4.592h11.495zm19.906-20.077h11.306l-1.201 10.733c5.165-8.046 10.339-11.656 15.712-11.925l-1.947 17.039c-5.784.295-10.333 1.559-13.95 4.66l-3.245 29.102h-12.25l5.575-49.609zm30.407 34.878c2.946 3.923 6.009 5.962 9.099 5.962 3.03 0 5.254-1.899 5.494-4.014.382-3.253-2.852-4.46-8.376-8.278-6.276-4.41-9.573-7.685-8.747-15.015.975-8.603 8.014-14.678 17.404-14.678 4.345 0 8.757 1.608 13.625 4.796l-6.56 8.678c-2.4-2.729-5.282-4.125-8.455-4.125-2.93 0-4.586 1.208-4.834 3.457-.25 2.423 2.511 3.883 6.999 6.997 2.665 1.761 5.565 3.437 8.108 6.054 2.292 2.44 3.344 5.866 2.862 10.07-1.044 9.235-8.259 15.944-18.162 15.944-5.664 0-10.629-2.321-15.208-6.809l6.751-9.039zm67.834 14.73H208.45l1.046-9.451c-5.417 7.135-10.309 10.568-15.801 10.568-6.016 0-9.595-4.299-8.884-10.906l4.481-39.819h12.295l-3.458 30.973c-.641 5.585-.348 7.725 3.284 7.725 2.32 0 5.235-1.656 8.803-5.035l3.793-33.663h12.277l-5.522 49.608zm18.611 1.117c-7.22 0-11.3-5.508-10.399-13.684 1.239-11.136 9.783-17.846 25.626-20.066l.451-3.909c.329-2.921-1.735-5.051-5.667-5.051-3.518 0-7.178 1.793-11.442 5.051l-4.896-7.765c5.437-4.361 11.376-6.446 18.099-6.446 11.688 0 17.138 5.789 15.873 17.08l-2.364 21.344c-.199 1.619.499 2.721 1.846 3.088l-1.081 9.707c-.701.111-1.402.111-2.041.111-5.055 0-8.275-1.976-10.008-6.053-4.862 4.428-9.078 6.593-13.997 6.593zm1.634-16.033c-.385 3.61 1.577 6.041 4.4 6.041 3.97 0 6.944-3.531 7.719-10.41l.617-5.812c-7.539 1.062-12.167 5.222-12.736 10.181zm31.688-34.692h12.162l3.37 29.258 9.906-29.258h12.125l-18.456 49.608h-11.713zm52.907 50.914c-12.047 0-17.825-7.175-16.333-20.337l1.31-11.764c1.462-13.041 8.255-20.004 19.157-20.004 10.196 0 15.729 6.78 14.486 17.875l-1.182 10.73h-21.901l-.466 4.286c-.638 5.681 2.361 9.034 8.279 9.034 3.198 0 7.055-1.129 11.729-3.354l.366 9.981c-5.559 2.333-10.66 3.553-15.445 3.553zm7.888-30.837l.456-4.332c.629-5.508-.993-8.269-4.814-8.269-3.458 0-6.065 2.761-6.673 8.009l-.483 4.592h11.514z"/><path fill-rule="evenodd" clip-rule="evenodd" fill="#D81E05" d="M190.49 38.662s152.931-22.349 156.938 0H190.49z"/></svg>